<?xml version="1.0" encoding="UTF-8"?>
<svg width="150px" height="28px" viewBox="0 0 150 28" version="1.1" xmlns="http://www.w3.org/2000/svg" xmlns:xlink="http://www.w3.org/1999/xlink">
    <!-- Generator: Sketch 51.3 (57544) - http://www.bohemiancoding.com/sketch -->
    <title>LOGOTYPE</title>
    <desc>Created with Sketch.</desc>
    <defs>
        <linearGradient x1="16.6858295%" y1="99.1558017%" x2="85.3182028%" y2="36.9698312%" id="linearGradient-1">
            <stop stop-color="#5233FF" offset="21.36%"></stop>
            <stop stop-color="#06BFD3" offset="99.96%"></stop>
        </linearGradient>
        <linearGradient x1="17.2172811%" y1="22.4070547%" x2="65.9826037%" y2="84.7751323%" id="linearGradient-2">
            <stop stop-color="#47CC6F" offset="0%"></stop>
            <stop stop-color="#4CD281" stop-opacity="0.9424" offset="28.82%"></stop>
            <stop stop-color="#58E2B1" stop-opacity="0.8267" offset="86.67%"></stop>
            <stop stop-color="#5BE6BD" stop-opacity="0.8" offset="100%"></stop>
        </linearGradient>
    </defs>
    <g id="Page-1" stroke="none" stroke-width="1" fill="none" fill-rule="evenodd">
        <g id="LOGOTYPE" fill-rule="nonzero">
            <g id="Group">
                <g id="isotype_envol_2_">
                    <polygon id="Shape" fill="url(#linearGradient-1)" points="2.30769231 26.4182692 6.875 27.4519231 20.8653846 19.4711538 23.1730769 11.9230769 21.4423077 4.66346154"></polygon>
                    <polygon id="Shape" fill="url(#linearGradient-2)" points="6.03365385 0.192307692 20.8653846 19.4711538 6.875 27.4519231 0 15.2403846 0 8.41346154"></polygon>
                </g>
                <g transform="translate(33.653846, 3.125000)" fill="#000545" id="Shape">
                    <path d="M12.8846154,6.22596154 C14.1586538,6.89903846 15.1682692,7.86057692 15.8894231,9.13461538 C16.6105769,10.4086538 16.9711538,11.875 16.9711538,13.5576923 C16.9711538,15.2403846 16.6105769,16.7307692 15.8894231,17.9807692 C15.1682692,19.2548077 14.1586538,20.2163462 12.8846154,20.8894231 C11.6105769,21.5625 10.1682692,21.8990385 8.55769231,21.8990385 C6.94711538,21.8990385 5.50480769,21.5625 4.20673077,20.8894231 C2.93269231,20.2163462 1.92307692,19.2548077 1.20192308,17.9807692 C0.480769231,16.7067308 0.120192308,15.2403846 0.120192308,13.5576923 C0.120192308,11.875 0.480769231,10.3846154 1.20192308,9.13461538 C1.92307692,7.86057692 2.93269231,6.89903846 4.20673077,6.22596154 C5.48076923,5.55288462 6.94711538,5.21634615 8.55769231,5.21634615 C10.1682692,5.21634615 11.6105769,5.55288462 12.8846154,6.22596154 Z M6.15384615,10.5769231 C5.50480769,11.2740385 5.16826923,12.2596154 5.16826923,13.5576923 C5.16826923,14.8557692 5.50480769,15.8413462 6.15384615,16.5384615 C6.80288462,17.2115385 7.59615385,17.5480769 8.55769231,17.5480769 C9.51923077,17.5480769 10.3125,17.2115385 10.9375,16.5384615 C11.5865385,15.8653846 11.8990385,14.8798077 11.8990385,13.5576923 C11.8990385,12.2596154 11.5865385,11.25 10.9375,10.5769231 C10.2884615,9.87980769 9.49519231,9.54326923 8.55769231,9.54326923 C7.59615385,9.54326923 6.80288462,9.87980769 6.15384615,10.5769231 Z"></path>
                    <path d="M32.1875,6.94711538 C33.6057692,8.10096154 34.4951923,9.6875 34.8798077,11.7067308 L29.6153846,11.7067308 C29.4711538,11.0096154 29.1346154,10.4567308 28.6538462,10.0721154 C28.1730769,9.6875 27.5480769,9.49519231 26.8269231,9.49519231 C25.9615385,9.49519231 25.2403846,9.83173077 24.6634615,10.5288462 C24.1105769,11.2259615 23.8221154,12.2355769 23.8221154,13.5336538 C23.8221154,14.8557692 24.1105769,15.8653846 24.6634615,16.5384615 C25.2163462,17.2355769 25.9375,17.5721154 26.8269231,17.5721154 C27.5721154,17.5721154 28.1730769,17.3798077 28.6538462,16.9951923 C29.1346154,16.6105769 29.4711538,16.0576923 29.6153846,15.3605769 L34.8557692,15.3605769 C34.4951923,17.3798077 33.5817308,18.9663462 32.1634615,20.1201923 C30.7451923,21.2740385 28.9903846,21.8509615 26.8990385,21.8509615 C25.3125,21.8509615 23.8942308,21.5144231 22.6682692,20.8413462 C21.4423077,20.1682692 20.4567308,19.2067308 19.7596154,17.9326923 C19.0625,16.6586538 18.7019231,15.1923077 18.7019231,13.5096154 C18.7019231,11.8028846 19.0384615,10.3125 19.7355769,9.0625 C20.4326923,7.8125 21.3942308,6.85096154 22.6442308,6.17788462 C23.8942308,5.50480769 25.3125,5.16826923 26.8990385,5.16826923 C29.0144231,5.21634615 30.7692308,5.79326923 32.1875,6.94711538 Z"></path>
                    <path d="M47.0673077,17.4038462 L47.0673077,21.6826923 L44.8317308,21.6826923 C42.9326923,21.6826923 41.4423077,21.2019231 40.3846154,20.2644231 C39.3269231,19.3269231 38.7980769,17.7644231 38.7980769,15.5769231 L38.7980769,9.61538462 L36.6105769,9.61538462 L36.6105769,5.43269231 L38.7980769,5.43269231 L38.7980769,1.44230769 L43.7740385,1.44230769 L43.7740385,5.43269231 L47.0432692,5.43269231 L47.0432692,9.61538462 L43.7740385,9.61538462 L43.7740385,15.6730769 C43.7740385,16.3221154 43.8942308,16.7548077 44.1586538,17.0192308 C44.4230769,17.2836538 44.8557692,17.4038462 45.4807692,17.4038462 L47.0673077,17.4038462 Z"></path>
                    <path d="M61.6346154,6.22596154 C62.9086538,6.89903846 63.9182692,7.86057692 64.6394231,9.13461538 C65.3605769,10.4086538 65.7211538,11.875 65.7211538,13.5576923 C65.7211538,15.2403846 65.3605769,16.7307692 64.6394231,17.9807692 C63.9182692,19.2548077 62.9086538,20.2163462 61.6346154,20.8894231 C60.3605769,21.5625 58.9182692,21.8990385 57.3076923,21.8990385 C55.6971154,21.8990385 54.2548077,21.5625 52.9567308,20.8894231 C51.6826923,20.2163462 50.6730769,19.2548077 49.9519231,17.9807692 C49.2307692,16.7067308 48.8701923,15.2403846 48.8701923,13.5576923 C48.8701923,11.875 49.2307692,10.3846154 49.9519231,9.13461538 C50.6730769,7.86057692 51.6826923,6.89903846 52.9567308,6.22596154 C54.2307692,5.55288462 55.6971154,5.21634615 57.3076923,5.21634615 C58.9182692,5.21634615 60.3605769,5.55288462 61.6346154,6.22596154 Z M54.9038462,10.5769231 C54.2548077,11.2740385 53.9182692,12.2596154 53.9182692,13.5576923 C53.9182692,14.8557692 54.2548077,15.8413462 54.9038462,16.5384615 C55.5528846,17.2115385 56.3461538,17.5480769 57.3076923,17.5480769 C58.2692308,17.5480769 59.0625,17.2115385 59.6875,16.5384615 C60.3365385,15.8653846 60.6490385,14.8798077 60.6490385,13.5576923 C60.6490385,12.2596154 60.3365385,11.25 59.6875,10.5769231 C59.0384615,9.87980769 58.2451923,9.54326923 57.3076923,9.54326923 C56.3461538,9.54326923 55.5528846,9.87980769 54.9038462,10.5769231 Z"></path>
                    <path d="M81.4423077,6.22596154 C82.5,6.89903846 83.3413462,7.86057692 83.9423077,9.11057692 C84.5432692,10.3605769 84.8557692,11.8509615 84.8557692,13.5576923 C84.8557692,15.2403846 84.5432692,16.7307692 83.9423077,17.9807692 C83.3413462,19.2548077 82.5,20.2163462 81.4423077,20.8894231 C80.3846154,21.5625 79.1826923,21.8990385 77.8365385,21.8990385 C76.5865385,21.8990385 75.5288462,21.6105769 74.6394231,21.0576923 C73.75,20.5048077 73.1009615,19.7355769 72.6923077,18.75 L72.6923077,21.6826923 L67.7163462,21.6826923 L67.7163462,0.120192308 L72.6923077,0.120192308 L72.6923077,8.36538462 C73.1009615,7.40384615 73.75,6.63461538 74.6394231,6.05769231 C75.5288462,5.50480769 76.6105769,5.21634615 77.8365385,5.21634615 C79.1826923,5.21634615 80.3846154,5.55288462 81.4423077,6.22596154 Z M73.6538462,10.6490385 C72.9807692,11.3701923 72.6442308,12.3317308 72.6442308,13.5576923 C72.6442308,14.7596154 72.9807692,15.7211538 73.6538462,16.4423077 C74.3269231,17.1634615 75.1923077,17.5240385 76.2259615,17.5240385 C77.2836538,17.5240385 78.1490385,17.1634615 78.7980769,16.4663462 C79.4471154,15.7692308 79.7836538,14.8076923 79.7836538,13.5576923 C79.7836538,12.3076923 79.4471154,11.3461538 78.7980769,10.6490385 C78.1490385,9.95192308 77.2836538,9.59134615 76.2259615,9.59134615 C75.1923077,9.59134615 74.3269231,9.95192308 73.6538462,10.6490385 Z"></path>
                    <path d="M113.125,6.12980769 C114.110577,5.55288462 115.168269,5.26442308 116.322115,5.26442308 L116.322115,10.5769231 L114.903846,10.5769231 C113.581731,10.5769231 112.548077,10.8653846 111.826923,11.4182692 C111.105769,11.9711538 110.745192,12.9326923 110.745192,14.2788462 L110.745192,21.6826923 L105.769231,21.6826923 L105.769231,5.43269231 L110.745192,5.43269231 L110.745192,8.48557692 C111.346154,7.5 112.139423,6.70673077 113.125,6.12980769 Z"></path>
                    <path d="M94.9519231,21.9230769 C92.5721154,21.9230769 90.625,21.1538462 89.1105769,19.6153846 C87.5961538,18.0769231 86.8269231,16.0576923 86.8269231,13.5096154 C86.8269231,10.9615385 87.5721154,8.96634615 89.0865385,7.45192308 C90.6009615,5.96153846 92.5480769,5.19230769 94.9519231,5.19230769 C97.3557692,5.19230769 99.3509615,5.9375 100.913462,7.40384615 C102.5,8.89423077 103.293269,10.9375 103.293269,13.5817308 C103.293269,14.1586538 103.245192,14.6634615 103.173077,15.1682692 L91.9471154,15.1682692 C92.0432692,15.8894231 92.3557692,16.4903846 92.9086538,16.9471154 C93.4615385,17.4038462 94.0384615,17.6442308 94.6875,17.6442308 C95.3125,17.6442308 95.7932692,17.5721154 96.1057692,17.4519231 C96.4182692,17.3317308 96.6586538,17.1875 96.8028846,17.0673077 C96.9471154,16.9471154 97.1394231,16.7307692 97.3798077,16.4423077 L102.788462,16.4423077 C102.331731,18.0769231 101.394231,19.3990385 99.9759615,20.4086538 C98.5576923,21.4182692 96.8990385,21.9230769 94.9519231,21.9230769 Z M97.0913462,10.2163462 C96.5144231,9.73557692 95.8173077,9.49519231 95.0240385,9.49519231 C94.2307692,9.49519231 93.5576923,9.73557692 93.0048077,10.2163462 C92.4519231,10.6971154 92.1153846,11.3221154 91.9711538,12.0673077 L98.0769231,12.0673077 C98.0048077,11.2980769 97.6682692,10.6971154 97.0913462,10.2163462 Z"></path>
                </g>
            </g>
        </g>
    </g>
</svg>